<svg version="1" xmlns="http://www.w3.org/2000/svg" width="1636" height="1636" viewBox="0 0 1227.000000 1227.000000"><path d="M508.5 266.6c-34 1.5-115.5 9.1-117.4 11-.9.9 1.7 2 16.8 7.4 8 2.9 23.6 8.6 34.6 12.6 20.6 7.5 71.7 25.9 95.5 34.5 7.4 2.6 23.6 8.5 36 12.9 12.4 4.5 25.8 9.3 29.7 10.7 6.9 2.4 7.3 2.7 8.3 6.4.6 2.2.8 4.4.5 4.9-.3.5.1 2.3.9 3.9 1.7 3.1 6 4.8 9.5 3.6 1.1-.3 10.7-2.4 21.3-4.6 10.6-2.2 21.2-4.4 23.4-4.9 2.3-.5 6.8-1.2 10-1.5 3.3-.3 7.7-1 9.9-1.5 8.1-2 25.9-3.9 26.6-2.8.4.7.8.6 1.1-.2.5-1.6 8.1-2.9 14.4-2.3 3.1.2 5.5 0 5.9-.6.8-1.4 8.5-1.4 8.5 0 0 .5.5.7 1 .4.6-.4.8-1.1.5-1.6-.4-.5.1-.9 1-.9s1.4.4 1.1.9c-.3.5.4 1.1 1.7 1.5 3.7 1 5 .7 4.3-.9-.3-.9 0-1.5 1-1.5.8 0 1.2.4.9 1-.4.6.6 1 2.2.9 2.5 0 2.6-.1.8-.9-3.1-1.3-.6-1.1 5.2.4 2.9.8 5.5 1 5.8.6.3-.5-.7-1.1-2.2-1.3-1.6-.2-.6-.2 2.1 0s6.2.7 7.9 1c2.1.4 2.8.3 2.3-.5s0-1.2 1.3-1.2c2.4 0 3.6 1.6 1.9 2.3-.7.3.3.3 2.2 0 1.9-.4 3.6-1 3.8-1.4.2-.4 1-.5 1.8-.2.7.3 1.1.9.8 1.4-.3.5 0 .9.5.9.6 0 1.1-.5 1.1-1 0-.6 1.4-1 3.1-1 1.7 0 2.8.4 2.4 1-.3.5-.3 1 .2 1 33.6.6 56.3 1.5 64.8 2.5 6.2.7 15.3 1.4 28.3 2.1 12.9.7 16.2-.1 19.2-4.7.8-1.2 2.2-3 3.1-3.9.8-.9 1.3-2.2 1.1-2.8-.2-.7.1-1.2.7-1.2s1.1-1.9 1.1-4.3c0-7.2-.8-8.6-5.4-9.8-3.9-1-43.1-13.1-52.6-16.3-2.5-.8-11.7-3.7-20.5-6.4-8.8-2.8-23.9-7.5-33.5-10.5-43.3-13.6-53-16.6-60-18.7-4.1-1.2-9.1-2.8-11-3.5-1.9-.8-4.8-1.6-6.5-1.9-4.7-.9-63.8-6.1-109.5-9.6-12.6-1-94.7-2-109.5-1.4zm274.8 86.1c-.7.2-1.9.2-2.5 0-.7-.3-.2-.5 1.2-.5s1.9.2 1.3.5zM777 354c1.8 1.2.2 1.2-2.5 0-1.3-.6-1.5-.9-.5-.9.8 0 2.2.4 3 .9zm10.7.6c-.3.3-1.2.4-1.9.1-.8-.3-.5-.6.6-.6 1.1-.1 1.7.2 1.3.5zM367 296.7c-13.3 3-51.7 11.5-58 12.9-28.3 6-51.6 11.6-52.9 12.8-.9.7-2.9 1.8-4.6 2.3l-3 1 2.7 1.7c1.5 1 8.2 4 15 6.8 6.8 2.7 23.8 9.6 37.8 15.3 14 5.7 28.9 11.8 33 13.5 42.3 17.6 62.8 25.3 67 25.2 3.9-.1 24.9-5.4 68.5-17.2 6.1-1.6 22.9-5.9 37.4-9.4s26.8-6.9 27.3-7.4c1.5-1.5-1.4-2.7-28.2-12.6-12.9-4.8-25.3-9.4-27.5-10.2-8.3-3.1-30.4-11.3-41.5-15.4-6.3-2.3-19.1-7-28.5-10.5-9.3-3.4-19.6-7.2-22.8-8.4-6.6-2.4-12.5-2.5-21.7-.4zm-46.6 17.8c-.7 1.6-2.4 2.1-2.4.6 0-.8.7-1.3 2.7-2 .1-.1 0 .6-.3 1.4zm46.6 1.7c-6.9 1.6-16.7 4-21.8 5.2-5.1 1.2-9.5 1.9-9.7 1.5-.3-.3 3.2-1.4 7.8-2.3 4.5-.9 13.6-3 20.2-4.6 6.6-1.5 12.9-2.8 14-2.8 1.1 0-3.6 1.3-10.5 3zm-39-1.2c0 1-5.9 1.9-6.5 1-.7-1.2.3-1.7 3.5-1.8 1.7 0 3 .3 3 .8zm54 1.4c0 .2-.9.6-2 .9-1.1.3-1.8.1-1.4-.4.5-.9 3.4-1.3 3.4-.5zm38.4.5c.4.5-.3.7-1.4.4-2.3-.6-2.6-1.3-.6-1.3.8 0 1.7.4 2 .9zm-56.1 4.8c-.7.2-2.1.2-3 0-1-.3-.4-.5 1.2-.5 1.7 0 2.4.2 1.8.5zm-4.8 1.3c1.3.5 1.4.9.5.9-.8 0-2.4-.4-3.5-.9-1.3-.5-1.4-.9-.5-.9.8 0 2.4.4 3.5.9zm-9.8 1.6c-.3.3-1.2.4-1.9.1-.8-.3-.5-.6.6-.6 1.1-.1 1.7.2 1.3.5zm7 6c-.5.5-5.7-1.3-5.7-2 0-.3 1.4 0 3.1.6 1.6.6 2.8 1.2 2.6 1.4zm94.6-1.9c-.7.2-1.9.2-2.5 0-.7-.3-.2-.5 1.2-.5s1.9.2 1.3.5zm-135.7 2.6c2.2 2.1-7.3 4.1-12.7 2.7-3.5-1-3.9-1.3-2.8-2.7 1-1.1 2.9-1.4 8.1-1.1 3.7.2 7 .7 7.4 1.1zm45.1.3c-.3.3-1.2.4-1.9.1-.8-.3-.5-.6.6-.6 1.1-.1 1.7.2 1.3.5zm15.3 6.6c1 .6.7.7-1 .2-1.4-.3-3.2-1.1-4-1.6-1-.6-.7-.7 1-.2 1.4.3 3.2 1.1 4 1.6zm79 .5c-1.2.8-2.7 1.2-3.4 1-.8-.3-2.2.1-3.3.8-3.4 2.5-.1 3.9 10.3 4.2 7.2.2 10.6-.2 13.3-1.4 2.5-1.1 3.1-1.7 1.9-2-.9-.2-1.9-1.1-2.2-2-.5-1.3 0-1.4 3.1-.8 3.9.7 6.3 2.1 6.3 3.6 0 .5-.8.9-1.8.9s-2.2.4-2.8 1c-.5.5-4.5 1.5-8.9 2.2-4.4.6-8.3 1.6-8.6 2.1-1.3 1.9-9.8-.3-13.1-3.4-3.1-2.8-3.2-3-1.5-4.6 1.9-2 9.4-4.2 11.5-3.5.9.3.7.9-.8 1.9zm14.3-1c-.7.2-1.9.2-2.5 0-.7-.3-.2-.5 1.2-.5s1.9.2 1.3.5zm-125.5 3.9c4.6 1.3 1.4 3.9-5.6 4.7-4.6.6-11.2-.8-11.2-2.3 0-2.5 10.6-4 16.8-2.4zm92.7.3c-2.6 1-11.1 2.4-10.4 1.6.7-.6 8.3-2.2 10.9-2.3.9-.1.6.3-.5.7zm-42.5 3.3c1 .6.7.7-1 .2-1.4-.3-3.2-1.1-4-1.6-1-.6-.7-.7 1-.2 1.4.3 3.2 1.1 4 1.6zm29-.3c-5.1 1.5-9.4 2.1-8.5 1.2 1-.9 4.9-1.7 9-1.9 1.5 0 1.4.2-.5.7zm-23 2.1c.8.5 1.1 1 .5 1-.5 0-1.7-.5-2.5-1s-1-1-.5-1c.6 0 1.7.5 2.5 1zm13 0c0 .5-.4 1-1 1-.5 0-1-.5-1-1 0-.6.5-1 1-1 .6 0 1 .4 1 1zm-5 1c0 .5-.5 1-1.1 1-.5 0-.7-.5-.4-1 .3-.6.8-1 1.1-1 .2 0 .4.4.4 1zm32 1.4c0 .2.3 1.2.6 2 .5 1.2.2 1.5-1.1 1-1.1-.5-1.6-.2-1.5.7.5 3-.1 3.9-2.2 4-1.3 0 0 .7 2.7 1.4 2.8.7 4.1 1.4 3 1.5-1.3.1-.8.5 1.4 1 5.4 1.3 28.2.2 33.1-1.5 2.3-.8 5.3-1.5 6.5-1.5 1.2 0 2.8-.7 3.5-1.5.9-1.1.7-1.9-1.4-4-3.6-3.6-3.3-3.9 1.5-1.5 5.4 2.8 5.1 5.7-1.1 8.7-16 7.9-57.1 3.9-53.6-5.2.8-2.2 8.6-6.8 8.6-5.1zm-70.7 4.7c5 1.3 4.1 2.1-2.8 2.6-5.8.5-6.7-.1-3.7-2.3 2.1-1.6 1.9-1.6 6.5-.3zm55 7.6c-3.4.6-2.8 2.1 1 2.6l3.2.4-3.7.1c-3.7.2-5.4-.9-4.3-2.8.3-.6 1.8-.9 3.3-.9 2.4.2 2.4.2.5.6zm7.2.4c1.2 1.8-.3 2.2-2 .5-1.4-1.4-1.4-1.6-.1-1.6.8 0 1.8.5 2.1 1.1zm-18.2 2.6c-.7.2-1.9.2-2.5 0-.7-.3-.2-.5 1.2-.5s1.9.2 1.3.5zm-4.8 1.3c-.4.6 1.2 1 4 1s4.4-.4 4-1c-.3-.6-.1-1 .5-1 .7 0 1 .6.8 1.2-.5 1.4-8 2.3-10.5 1.4-1.5-.6-.9-2.6.8-2.6.6 0 .7.4.4 1zM216 330.4c1.9.7 13.2 5.3 25 10.3 11.8 5 38.6 16.1 59.5 24.8 20.9 8.6 39.4 16.3 41 17 1.7.8 7.1 3 12 5 5 2 11.4 4.8 14.3 6.1 2.9 1.3 5.5 2.4 5.8 2.4 1.2 0 15.4 6.4 15.4 6.9 0 .4-1.5 1.5-3.2 2.6-1.8 1-6.6 4.3-10.6 7.2L368 418l-16.8-7.1c-9.2-3.9-20.1-8.6-24.2-10.4-4.1-1.9-9.7-4.2-12.5-5.3-2.7-1.1-7.5-3.1-10.5-4.5s-15.8-6.9-28.5-12.2c-50.6-21.4-79.1-33.6-80.7-34.5-1-.6-2.2-1-2.8-1-1.7 0-1.1 2 .8 2.7 1.7.6 41.2 17.4 46.7 19.8 1.7.8 7.3 3.1 12.5 5.3 11.6 4.9 69.8 29.8 85.5 36.7 16.2 7.1 29.4 12.5 30.5 12.5.8 0 2.8-1.3 4.5-2.9 1.6-1.6 6.2-5 10-7.5 3.9-2.5 7.8-5.1 8.8-5.8 1.6-1.1-1.4-2.6-23.5-11.7-13.9-5.8-27.1-11.2-29.3-12.2-2.2-.9-7.6-3.2-12-4.9-4.4-1.7-13.6-5.6-20.5-8.5-6.9-2.9-17.4-7.3-23.5-9.8-6-2.5-23.5-9.7-38.8-16.1-15.3-6.4-28.6-11.6-29.5-11.6-.9.1-.1.7 1.8 1.4z"/><path d="M210.5 337.5c-11.4 3.3-14 4.4-12.9 5.4 1.5 1.5 15.7 7.1 16.5 6.6.8-.6 7.9-13 7.9-13.9 0-1.1-3.4-.5-11.5 1.9zm8.5 0c0 .3-.7 1.7-1.5 3-.8 1.4-2.2 3.6-3 4.9l-1.5 2.5-6-2.6c-3.3-1.5-5.7-3-5.3-3.4 1-.9 13.3-4.8 15.6-4.8.9-.1 1.7.1 1.7.4z"/><path d="M210.5 341.5c-1.6 1.4-2.7 2.5-2.3 2.5.9 0 7.8-4.1 7.8-4.6 0-1.1-2.9 0-5.5 2.1zM225.8 346.1c-2.7 1.7-4.8 3.5-4.8 3.9 0 .7 11.7 6 13.4 6 .4 0 3-1.4 5.7-3.2 6-3.8 6.3-6.2 1.3-8.3-5.7-2.4-10.3-1.9-15.6 1.6zm12.7-1.1c.3.5 1.5 1 2.6 1 2.9 0 1.9 1.8-2.3 4.2-3.5 2-3.8 2-7.2.4-2-.9-3.6-1.9-3.6-2 0-.2 1.5-1.3 3.3-2.5 3.5-2.2 6.2-2.7 7.2-1.1zM256 354.1c-10.1 2.8-17 5.2-17 5.9 0 1 16.2 8 17.2 7.3.7-.3 5.8-9.6 7.6-13.6.5-.9-3.4-.8-7.8.4zm4 2.8c-.9 1.7-1.5 1.9-3 1.1-2.1-1.1-5.3-.3-4.4 1.2.3.5-.5 1.2-1.7 1.6l-2.4.6 2.5.6c1.5.4 3 .1 3.8-.7 2.2-2.1 3.2-1.5 2 1.2-.6 1.4-1.6 2.5-2.2 2.5-1.7 0-11.6-4.3-11.6-5 0-.7 17.2-6 17.8-5.5.2.2-.1 1.3-.8 2.4zM267.8 363.8c-6.6 4.2-7.3 5.7-2.4 4.9 3.5-.6 9.3 2.2 7.9 3.8-.5.4-.1.6.7.3 5.6-2.1 5.5-2.1 4.3-.7-2.6 2.7-1.2 3.2 1.6.5 1.6-1.6 3.4-2.6 3.9-2.2 1 .6 6.8-5.1 6-6-1.1-1.1-8.5 1.6-11.3 4.2-1.5 1.4-3.1 2.1-3.4 1.6-.3-.5-1.9-1.3-3.5-1.9l-3-.9 4-2.4c5.2-3.1 5.1-3 3.4-4-2.1-1.3-1.8-1.4-8.2 2.8zM607.4 366.4c-.8 1.7-.8 2.7.1 4 1.2 1.5 1.3 1.5 1.9 0 .3-.9.4-1.9.1-2.4-.3-.4.2-1 1-1.4.8-.3 1.5-1.1 1.5-1.7 0-.8-.5-.7-1.7.2-1.1 1-1.4 1-.9.1.4-.6.4-1.2-.1-1.2-.4 0-1.3 1.1-1.9 2.4zM303.5 372c.4.6.2 1.7-.5 2.5-.9 1.1-.7 1.6.9 2.4 4.9 2.7 8.3-.7 4-4-2.6-2-5.4-2.6-4.4-.9zM1085 375c-.9.6-1 1-.3 1 .6 0 1.5-.5 1.8-1 .8-1.2.4-1.2-1.5 0zM288 380.3c0 .3 1.5 1 3.2 1.6 1.8.6 2.8.7 2.3.2-1.2-1-5.5-2.5-5.5-1.8zM325.5 380.7c-6.3 1.4-21.5 6.5-21.5 7.2 0 .9 17.9 8.6 18.4 8 .6-.7 7.6-14.8 7.6-15.4 0-.6-1.4-.5-4.5.2zm1.3 2c-2.8 6.3-5.4 11.3-6 11.3-1.2 0-1-1.8.3-2.5 1.6-1.1-2-4.5-4.8-4.5-2.6 0-3.2-1.9-.5-2.1.9-.1 2-.1 2.4 0 .4 0 1.9-.6 3.5-1.4 3-1.6 5.7-2 5.1-.8zm-15.3 4.3c-.3.5-1.4 1-2.3 1-1.5 0-1.5-.2-.2-1 2-1.3 3.3-1.3 2.5 0zm5 3c4 1.5 2.3 2.4-1.9 1-2-.6-3.4-1.6-3-2.1.3-.5.9-.7 1.3-.4.5.2 2.1.9 3.6 1.5zM1096.7 381.1c.7.7 1.5 1 1.8.7.3-.3-.2-.9-1.2-1.2-1.4-.6-1.5-.5-.6.5zM346.5 390.7c-7.7 1.9-20.6 6.6-19.9 7.3 1 .9 18.6 8.1 19 7.7.5-.6 7.4-14.7 7.4-15.2 0-.6-3.6-.5-6.5.2zm2.5 3.3c-1.1 2.1-3.6 2.6-6 1-1.2-.7-1-1.1 1-1.9 1.4-.5 3.3-1 4.3-1 1.5-.1 1.6.2.7 1.9zm-7.4 2.5c.9.8 2.4 1.5 3.5 1.5 2.2 0 2.4.8.4 3.3-1 1.4-2 1.7-3.7 1.1l-2.3-.7 2.5-.9c2.4-.9 2.4-1 .5-1.7-1.1-.5-3.3-1.1-5-1.5-2.4-.5-2.6-.4-1.2.4 3.3 2.1 1.7 2.8-2.5 1.2l-4.1-1.6 2.9-1.3c4-1.7 7.2-1.6 9 .2zM372.1 401.1c-.1 1.2-1.6 1.8-6.2 2.3-3.3.4-7.2 1.1-8.6 1.7-2.2.8-2.3 1.1-.9 2.4.8.8 2.4 1.5 3.5 1.5 1.2 0 2.1.6 2.1 1.5 0 2 4.2 2 8 0 1.8-.9 3-2.4 3-3.5 0-1.3.9-2.2 2.5-2.6 1.4-.3 2.5-1.3 2.5-2.1 0-1.1-.7-1.3-2.4-.9-1.5.4-2.6.1-2.9-.7-.4-.7-.6-.6-.6.4zM62.2 408.6c.1 1.1-1.9 5-4.4 8.9-2.5 3.8-6.1 9.5-8.1 12.6-2.7 4.4-4 5.5-5.8 5.4-3.8-.3-4.8.5-7.4 5.6-3 5.9-3.1 6.7-.5 9.5l2.1 2.1-3.9 10.4c-2.2 5.7-4.5 12.1-5.2 14.2-1 3.1-2 4.2-5.4 5.7-4 1.7-4.3 2.1-5.5 7.6l-1.3 5.8 2.9 2.3 3 2.3-1.3 6.8c-.7 3.7-1.6 10-2 14-.3 4.1-1.2 7.8-1.8 8.3-.6.5-2.3 1.8-3.8 3-2.5 1.8-2.8 2.7-2.8 8 0 5.7.1 6 3.3 7.5l3.3 1.6 1.2 13.6 1.3 13.5-3.2 2.9c-2.5 2.3-3 3.4-2.5 5.5.4 1.4 1 3.8 1.3 5.4.4 2 1.9 3.7 5.2 5.7 4.4 2.8 4.7 3.4 8 13l3.3 10.1-2.2 3.6-2.2 3.6 2.3 4.6c1.9 3.5 3.9 5.4 8.9 8.4 6.2 3.7 14.9 12.8 15 15.7 0 .7-.7 2.7-1.6 4.4l-1.6 3 4.9 4.7C60.1 672 72.1 680 80.1 684c2.3 1.2 2.8 2 2.4 3.7-.5 2 1 3.3 11.1 9.8 15.7 10.3 25.4 15.6 26.6 14.9.6-.4 1.3-.1 1.7.5 1.4 2.3 27.4 18.1 30.8 18.7 2.8.5 3.9.2 6.2-2 3.5-3.3 5.7-2.7 18.3 4.8 8.1 4.9 10.1 5.6 14.5 5.6 4.7 0 5.4-.3 7-3 1.5-2.6 2.3-3 6.3-3 3.3 0 4.1.3 3 1-1.3.8-1.1 1.1.8 1.6 1.2.4 2.2 1 2.2 1.5s1.3.9 3 .9c1.6 0 2.9.3 2.9.7-.4 2.6.5 3 5.6 2.8 5.3-.3 8.2.9 5.1 2.1-1.2.5-1.2.8.4 2.4.9.9 2.8 1.8 4.1 1.8 1.3 0 4.5.5 7.2 1.1 2.6.6 10.1 1.3 16.7 1.6 6.6.3 12.4.5 12.8.6 1.3.1 26.7 0 26.7-.1 0-.2 16.3-.8 27.5-1 8.2-.1 11-.4 9.7-1.1-.9-.6-2.1-.8-2.5-.5-.5.3-.9-.1-.9-.9 0-1.1.9-.9 3.9.6 2.1 1.1 3.6 2.4 3.3 2.9-.3.5 0 .8.7.5.7-.3 3.1.5 5.3 1.8 3.5 2 4.8 3.9 10.5 15.2 8.3 16.5 14.8 26 25.1 36.9 7.9 8.3 9.3 9.3 44.3 30.2 19.8 11.9 36.3 21.8 36.5 22 .2.1-1.1 2.1-2.8 4.2-3.5 4.5-3.7 5.9-1.6 12.8 1.3 4.4 2.1 5.3 6.6 7.9 5.7 3.3 5.4 2.9 10.5 13.6l3.5 7.6-2 3.4c-2.7 4.3-2.6 6.3.1 10.8 2.7 4.4 3.3 4.9 16.7 13.2 8 5 10.5 7.1 10.3 8.5-.1 1.1-.5 3.4-.9 5.2-.8 4.3.6 5.7 13.6 13.9 5.8 3.7 14.3 9.1 18.9 12 4.5 2.9 9.3 5.3 10.5 5.3 2.4.1 6 2.6 6.9 5 .5 1.4 25.7 17.8 38.9 25.4l4.7 2.7 3.1-2.6 3-2.6 5.8 3.9c13.7 9.2 19.7 12.2 24.6 12.2 4.1 0 4.9-.4 7.3-3.5 2.6-3.4 2.8-3.5 10.1-3.5 6.8 0 7.9.3 13.1 3.6 5.4 3.5 5.9 3.6 11.1 2.8 4.9-.8 5.8-1.3 8.6-5.4 2.9-4.1 3.8-4.7 10.8-6.6 7.1-2 8.3-2 14-.8 5.9 1.2 6.4 1.2 11.9-1.3 5-2.2 5.9-3.1 7.4-6.9 1.5-4 2.5-4.9 10.3-9.1 4.7-2.5 9.9-5.5 11.4-6.6 2.4-1.6 3.3-1.8 5.3-.8 3.8 1.7 5.2 1.4 9.7-2.2 5.2-4 5.5-4.3 6.2-8.9.5-2.5 1.7-4.4 3.8-6.1 1.8-1.4 7-5.8 11.6-10 7.5-6.7 8.8-7.5 11.6-7 2.7.4 3.6-.1 7.8-4.7 3.8-4.2 4.7-5.9 4.7-8.8 0-3.2 1.5-5.6 10.5-16.7 8.8-11 10.9-13 13.2-13 2.2 0 3.5-1.2 7-6.1 3.7-5.3 4.1-6.5 3.4-9.1-.7-2.5-.2-4 4.1-10.9 2.7-4.3 6.5-11.1 8.5-15 2.9-5.7 4.3-7.3 6.7-8 4.5-1.3 8.9-10.1 8.1-16.3-.4-3.7.3-6.6 4.4-17 2.7-6.9 5.3-13.9 5.7-15.4.4-1.9 1.6-3.2 3.5-3.9 2.2-.7 3.3-2.2 4.9-6.4 2.4-6.5 2.5-10.1.6-12.3-1-1.1-1.2-2.1-.6-3.1.7-1.2 2.2-.8 8.9 2.5 4.4 2.1 8.3 3.6 8.7 3.3 1.8-1.8 4.4-88.9 3.3-110.1-1.6-32.5-9.9-62.4-25.4-92.2-15.7-30.2-44.4-54.3-75-63-50.7-14.5-102-1.5-161.2 40.6-16.4 11.7-45.3 40.2-62.9 62-7.4 9.2-14.2 17.3-15 18-1.1.9-3.9 1.2-8.7 1-6.5-.2-8.5-.9-24.1-8.3-9.4-4.4-22.5-10.1-29.1-12.5-6.6-2.4-15.4-6.4-19.5-8.7-4.1-2.4-10.4-5.9-14-7.8-3.6-2-8.7-4.8-11.5-6.3-2.7-1.6-7.9-4.4-11.5-6.3-3.6-1.9-11.3-6.1-17.2-9.4-9.7-5.3-33.8-17.2-72.3-35.8-22.9-11.1-43.6-21.1-68-33-12.6-6.2-29.3-14.3-37-18-7.7-3.7-25.2-12.3-39-19-13.7-6.7-29.5-14.4-35-17-5.5-2.6-24.3-11.8-41.9-20.4-17.5-8.6-32-15.6-32.2-15.6-.3 0-6.4-3-13.7-6.6-11.2-5.6-17.2-8.1-28.9-12-1.2-.4-1.7-.1-1.6 1.2zm51.1 85.6c13.9 7.2 25.3 13.1 25.4 13.2 0 .1 1.3 10.2 2.8 22.6 1.5 12.4 3 24.5 3.5 27s.6 4.7.4 5c-.3.2-3.1-.9-6.2-2.5-12.7-6.7-43.8-23.7-44.6-24.5-.6-.6-7.4-48.5-7.6-53.8 0-.7 3.2.9 26.3 13zm237.2 125.2c27.1 14 37.6 19.6 39.1 20.7.6.5 1.6 8.1 2.3 17.6.7 9.3 1.6 21.5 2.2 27.2.5 5.7.8 10.6.5 10.8-.6.6-10.2-4.5-41.8-21.9l-21.6-12-.6-4.1c-.8-5.6-3.3-30.9-4.2-42.1-.4-5.2-.3-8.7.3-8.5.5.2 11.2 5.8 23.8 12.3z"/><path d="M94.2 500c0 1.9.2 2.7.5 1.7.2-.9.2-2.5 0-3.5-.3-.9-.5-.1-.5 1.8zM95.2 509c0 1.9.2 2.7.5 1.7.2-.9.2-2.5 0-3.5-.3-.9-.5-.1-.5 1.8zM99.7 510c.6 4.6 1.3 6.6 1.3 3.7 0-2.7 1.7-1.9 2.9 1.3 1 3.1 2.6 3.9 3.4 1.7.4-.7.8-.4 1.2 1 1 3.3 3.2 3.6 3.8.5.6-3.1-1.3-8.8-2-5.9-.3 1 0 2.4.6 3 .5.7.6 1.9.2 2.6-.6.9-1 .5-1.5-1.3-.4-1.5-1.1-2.4-1.7-2.1-.6.4-.7-.3-.4-1.8.4-1.4.2-2.8-.4-3.1-.7-.5-1.1.4-1.1 2.4 0 4.1-2 2.9-2.1-1.3 0-1.8-.3-2.6-.6-2-.7 2-2.3 1.5-3.3-1-.7-1.6-.8-1-.3 2.3zM113.8 515.2c-.2 3.8.2 6.2 1.4 7.3.8.7.9.3.3-1.5-.3-1.4-.6-3.7-.6-5.3.2-3.2-.8-3.7-1.1-.5zM96.2 516.5c0 1.6.2 2.2.5 1.2.2-.9.2-2.3 0-3-.3-.6-.5.1-.5 1.8zM116.1 516.7c.1 1.8.3 2.2.6 1 .7-2.8 3.3-.1 3.3 3.4 0 3.4-1.7 3.9-2.3.6-.4-2-.4-1.9-.6.4 0 1.6.5 2.9 1.5 3.3 2.3.9 2.4.8 2.5-1.7 0-2.1.1-2.1.9-.2.7 1.6.9 1.1.9-2 0-2.9-.3-3.5-.8-2-.7 1.7-.8 1.7-1.4-.8-.4-1.4-1.6-3.1-2.7-3.7-1.8-1-2-.8-1.9 1.7zM126.6 524.2c.8 6.2 1.1 6.8 3.1 6.8 1.7-.1 1.7-.1.1-1.4-1-.7-1.8-1.8-1.8-2.4 0-.7.8-.9 1.8-.5 1.3.5 1.2.1-.5-1.6-2.7-2.6-2.9-3.6-.7-2.7 1 .4 1.4.1 1.2-.6-.3-.7-1.2-1.4-2.2-1.6-1.4-.3-1.6.3-1 4zM97.1 522.7c0 1.3.3 2.3.9 2.3 2 0 32.5 17.2 33.9 19.1 1.2 1.7 5.1 2.7 5.1 1.3 0-.3-1-1.9-2.1-3.6-1.4-1.9-2.4-2.6-2.9-1.8-.9 1.4-33.7-15.8-34.3-18-.3-.9-.5-.6-.6.7zM123 526.9c0 .5.7 1.1 1.5 1.5.8.3 1.5.1 1.5-.3 0-.5-.7-1.1-1.5-1.5-.8-.3-1.5-.1-1.5.3zM328 612.8c.1 1 4.1 3.8 6.8 4.6 3.5 1.2 2.6 0-2.3-2.7-2.5-1.4-4.5-2.3-4.5-1.9zM340 619.7c0 .5 1.8 1.6 4 2.5 4.9 2.1 5.1 1.7.4-1.1-3.9-2.3-4.4-2.5-4.4-1.4zM332.7 621.1c.7.7 1.5 1 1.8.7.3-.3-.2-.9-1.2-1.2-1.4-.6-1.5-.5-.6.5zM329 623.4c0 .2.7.7 1.6 1 .8.3 1.2.2.9-.4-.6-1-2.5-1.4-2.5-.6zM339.1 624.4c.2.2 1.5.9 2.9 1.5 2.4 1.1 2.4 1.1.6-.3-1.6-1.3-4.9-2.4-3.5-1.2zM333 626c0 .5.5 1 1 1 .6 0 1-.5 1-1 0-.6-.4-1-1-1-.5 0-1 .4-1 1zM353.5 627.5c2.7 2.2 5.5 3.2 5.5 2.1 0-.6-6.6-4.6-7.6-4.6-.5 0 .5 1.1 2.1 2.5zM337.6 627.3c.3 1 .9 1.5 1.2 1.2.3-.3 0-1.1-.7-1.8-1-.9-1.1-.8-.5.6zM346 627.9c0 .9 5.1 3.4 5.7 2.7.2-.2-1-1.1-2.6-1.9-1.7-.9-3.1-1.2-3.1-.8zM330.5 629c.3.5 1.1 1 1.6 1 .6 0 .7-.5.4-1-.3-.6-1.1-1-1.6-1-.6 0-.7.4-.4 1zM360.5 631c.3.5.8 1 1.1 1 .2 0 .4-.5.4-1 0-.6-.5-1-1.1-1-.5 0-.7.4-.4 1zM337 632c0 .5.5 1 1.1 1 .5 0 .7-.5.4-1-.3-.6-.8-1-1.1-1-.2 0-.4.4-.4 1zM354.2 632.6c1 1 2 1.5 2.4 1.2.3-.4-.5-1.2-1.8-1.8-2.2-1.2-2.2-1.2-.6.6zM363.5 632c.3.5.8 1 1.1 1 .2 0 .4-.5.4-1 0-.6-.5-1-1.1-1-.5 0-.7.4-.4 1zM366 632.9c0 .5.5 1.3 1 1.6.6.3 1 .2 1-.4 0-.5-.4-1.3-1-1.6-.5-.3-1-.2-1 .4zM330 633.8c0 1.4 4.1 4.3 5.2 3.6.4-.3.8 0 .8.5 0 .6.5 1.1 1 1.1 1.9 0 1-1.9-1.2-2.6-1.3-.3-3.1-1.3-4-2.2-1.1-.9-1.8-1-1.8-.4zM351 635c.8.5 2 1 2.5 1 .6 0 .3-.5-.5-1s-1.9-1-2.5-1c-.5 0-.3.5.5 1zM369 634.7c0 .8 4.8 3.7 8.5 5.1 1.9.8-.9-1.4-4.7-3.7-2.1-1.3-3.8-1.9-3.8-1.4zM360 635.5c0 .2 1.4 1.1 3 2 1.7.9 3 1.2 3 .7s-1.1-1.4-2.5-2c-2.8-1.3-3.5-1.4-3.5-.7zM350 639c0 .5.5 1 1 1 .6 0 1-.5 1-1 0-.6-.4-1-1-1-.5 0-1 .4-1 1zM340 640c0 .5.5 1 1.1 1 .5 0 .7-.5.4-1-.3-.6-.8-1-1.1-1-.2 0-.4.4-.4 1zM331.1 641.6c0 1.1.3 1.4.6.6.3-.7.2-1.6-.1-1.9-.3-.4-.6.2-.5 1.3zM334 642.9c0 .5.5 1.3 1 1.6.6.3 1 .2 1-.4 0-.5-.4-1.3-1-1.6-.5-.3-1-.2-1 .4zM358 642.8c0 .5 1.1 1.4 2.5 2 1.5.7 2.5.8 2.5.2 0-.6-.7-1-1.5-1s-1.5-.5-1.5-1c0-.6-.4-1-1-1-.5 0-1 .4-1 .8zM347.7 644.5c.3.9.8 1.3 1.1 1.1.3-.3 1.1-.1 1.9.5.7.6 1.3.8 1.3.4 0-.9-3.1-3.4-4.2-3.5-.4 0-.5.7-.1 1.5zM353.1 653.6c0 1.1.3 1.4.6.6.3-.7.2-1.6-.1-1.9-.3-.4-.6.2-.5 1.3zM350 662c0 1.8 1.1 2.5 3.4 2.1.5-.1.6.5.3 1.3-.6 1.5 2.5 3.2 5.1 2.8.6-.2 1.2.4 1.2 1.3 0 .8.5 1.5 1.1 1.5.6 0 .9-.6.6-1.4-.3-.7 0-1.9.6-2.5.8-.8.4-1.1-1.6-1.1-1.5 0-2.7-.5-2.7-1.2 0-.6-.7-.3-1.5.8-1.1 1.3-1.5 1.4-1.3.4.3-1.5-3-6-4.4-6-.5 0-.8.9-.8 2zM362.5 670c.2 2.7 1.5 3.8 1.5 1.2 0-1.1-.4-2.3-.8-2.6-.5-.3-.8.4-.7 1.4zM369.5 670c-.9 1.5.4 6.7 2.1 8.1 1.8 1.5 1.8.8-.1-2.7-1.3-2.6-1.3-3 0-4 .8-.6 1.5-1.4 1.5-1.8 0-1-2.8-.7-3.5.4zM374.5 672.1c-1 1.6.3 7.5 2 8.9 1 .8 1.5.9 1.5.2 0-.6-.4-1.3-.8-1.6-.9-.5-.9-4.7.1-6.3.7-1.1-.1-2.3-1.4-2.3-.4 0-1.1.5-1.4 1.1zM384.7 679c1.1 2.3 1.8 2.9 2.6 2.1 1.4-1.4-.2-4.4-2.6-4.9-1.5-.3-1.5-.1 0 2.8zM387 684.7c0 1.3.5 2.3 1 2.3 1.3 0 1.3-1.1 0-3-.8-1.2-1-1.1-1 .7zM384 688.8c0 .4 1.4 1.6 3 2.5 2.4 1.5 3 1.5 3 .4 0-.8-1.1-1.9-2.5-2.5-3.1-1.4-3.5-1.5-3.5-.4zM981.5 517.6c-3.3 1.2-10.5 3.9-16 5.8-65.5 23.1-69.5 24.6-71 27-1.1 1.8-1.1 4.9 0 19.1.8 9.3 1.5 20.9 1.5 25.6 0 7.9.2 8.8 2.3 10.2 1.2.8 3.4 2.5 4.8 3.8 1.4 1.3 4.3 3.9 6.5 5.8 2.1 1.9 7.3 6.4 11.4 10.1 15.1 13.6 24.8 22 25.3 22 .3 0 2.3-2.6 4.4-5.8 2.1-3.1 13.6-20.2 25.5-37.8 12-17.7 22-33.4 22.4-34.9.8-3.1-4.3-49-5.7-51.7-1.3-2.3-4-2.2-11.4.8zm10.5 2.6c.9 2.4 5 38.9 5 44.7 0 3.8-2.3 8.1-11.5 21.6-3.4 4.9-12.8 18.9-21 31-8.2 12.1-15.5 22.9-16.4 24.1-1.5 2.1-1.9 1.8-17.5-12-8.7-7.8-19.6-17.2-24.1-21l-8.2-6.9-1.3-20.8c-1.5-25.9-1.5-27.8.2-29.5 1.4-1.4 21.1-8.9 53.8-20.4 11.3-3.9 23.9-8.4 28-10 9.4-3.5 11.8-3.7 13-.8z"/><path d="M958.5 531.4c-15.9 5.6-33 11.7-38 13.5-4.9 1.8-11.8 4.3-15.2 5.5-3.5 1.3-6.5 2.5-6.7 2.7-.2.2.2 10.5 1 22.9l1.5 22.5 6.2 5.5c3.4 3 13.6 12.4 22.7 20.7 12.8 11.9 16.7 15 17.7 14 2.3-2.4 39.7-59.4 43.3-65.9l3.6-6.7-2.3-20.8c-1.2-11.4-2.3-21.6-2.3-22.6 0-.9-.6-1.7-1.2-1.6-.7 0-14.3 4.7-30.3 10.3zm31.4 4.2c.7 6.9 1.1 12.7.9 12.9-.2.2-7.5 2.8-16.3 5.8-8.8 3.1-26.3 9.2-39 13.7-12.6 4.5-25.4 9-28.4 10.1-3 1-5.5 1.8-5.6 1.7-.2-.2-.6-6-.9-12.9l-.7-12.5 22.8-8.2c30.3-10.9 64.7-23.1 65.4-23.1.3-.1 1.1 5.6 1.8 12.5zm2.6 22.9c.6 7.2.5 7.8-2.5 13.3-4.1 7.2-42.3 65.2-43 65.2-.5 0-10.3-8.9-38.3-34.5l-6.8-6.2.3-7.3.3-7.3 8-2.8c10.9-3.7 70.1-24.7 74.5-26.4 6.4-2.5 6.7-2.3 7.5 6z"/><path d="M965.8 539.2c-1.4 1.1-1.6 2.3-1.1 7 .3 3.2 1 5.5 1.4 5.2.5-.3.6-1.6.3-3-.8-3.2 2-3.3 4.7-.2 1.4 1.8 1.8 1.9 1.9.7 0-.9-.3-1.9-.7-2.3-.5-.4-.8-2.4-.8-4.4 0-2.9-.4-3.8-2-4-1.1-.1-2.8.3-3.7 1zm5.2 1.6c0 1.2-2.3 3.2-3.7 3.2-.7 0-1.3-.9-1.3-2 0-1.5.7-2 2.5-2 1.4 0 2.5.4 2.5.8zM957.4 542c-1.9.7-2 1.4-1.6 6.7.2 3.2.6 6 .8 6.1.6.8 6.4-1 6.4-2 0-.6-1-.8-2.4-.4-3.5.9-4.4-2.1-1.1-3.6 3.2-1.5 3.2-3 0-2.2-1.9.5-2.5.2-2.5-1 0-.9 1.1-2.1 2.5-2.6s2.5-1.2 2.5-1.5c0-.7-2.2-.5-4.6.5zM948.9 544.7c-3.4.8-5 8.4-2.5 11.8 1.2 1.6 1.9 1.8 4.3 1 2.2-.8 2.9-1.7 3.1-4.3.2-2.3-.1-3.2-1.2-3.2-.8 0-1.8.4-2.1 1-.3.5.1 1 1 1 2.8 0 1.3 3.5-1.6 3.8-2.1.2-2.7-.2-3.1-2.2-.7-3.7 1.3-7.2 4-6.9 1.2.2 2.2-.1 2.2-.6 0-1.1-2.1-1.8-4.1-1.4zM942.1 552.5l-.1 5-2.5-3.8c-4.2-6.1-5.5-4.4-3.6 4.8l.9 4 .1-4.5.1-4.4 2.9 3.4c1.6 1.9 3.2 3.2 3.6 2.9.3-.4.2-3.3-.3-6.5l-1-5.9-.1 5zM928.5 553.2c-.4 1.4-2.5 11.6-2.5 12.3 0 .3.5.5 1 .5.6 0 1-.9 1-2 0-2.8 3.6-4.5 4.9-2.3.5 1 1.2 1.5 1.6 1.1.6-.6-4.1-10.8-5-10.8-.3 0-.7.6-1 1.2zm1.6 6.1c-.8.8-1.1.3-1.1-1.9.1-2.5.2-2.7 1.1-1.1.8 1.4.8 2.2 0 3zM918.2 556c-2.2.9-2.3 1.3-1.6 6.7.3 3.2.8 6 1.1 6.3.2.2 1.6-.2 3.1-1.1 3.4-1.9 4.9-6 3.6-9.6-1-3.1-2.7-3.7-6.2-2.3zm4.6 4.8c.4 3.5-1.1 6.2-3.4 6.2-1 0-1.4-1.4-1.4-5.1 0-4.7.2-5 2.3-4.7 1.7.2 2.3 1.1 2.5 3.6zM944.4 571.4c-7.3 4.5-12.5 15-13.9 27.6-.9 8.2.6 13.9 4.6 18.5 2.7 3 3.7 3.5 7.7 3.5 8.7 0 15.6-6 21.3-18.6 7.2-15.8 1.6-31.8-11.5-33.1-3.1-.3-5.1.2-8.2 2.1zm13.4 5.3c1.3.8 3.3 3.5 4.4 6 2.5 5.7 1.9 12.4-1.8 20-2.3 4.7-9.2 12.3-11.3 12.3-.5 0 1.6-6.1 4.5-13.5 5.7-14.2 6.4-17.1 3.9-16.1-1.2.4-1.4 0-.9-2.1.5-1.8.3-2.4-.6-2.1-.6.2-2.3 3.7-3.5 7.7-1.3 4.1-2.9 7.9-3.6 8.5-.9.8-.9.6-.1-.9 1.8-3.7 5-16.5 4.2-17-.9-.6-2.3 2.7-4.6 11.2-.9 3.5-2 6.3-2.5 6.3-.4 0-.2-1.8.6-4.1 1.1-3 1.2-4 .2-3.6-.6.2-2 2.6-3 5.3-1 2.7-2.3 5.3-2.9 5.9-.5.5-.3-.7.6-2.9 1.8-4.4 2-5.6.8-5.6-1 0-6.2 11.7-6.2 13.7 0 .7-.5 1.3-1.1 1.3-1.7 0-.5-13 1.7-18.7 1.5-3.7 2-4.3 2.9-3 1 1.4 7.9 2.7 8.8 1.7.2-.3.7-1.7 1.1-3.3.8-3.3-.7-3.6-2.1-.5-1.1 2.3-1.1 2.3-2.2-.6-1.7-4.3-1-6 2.9-7.3 3.8-1.3 6.2-.9 9.8 1.4zm-2.8 14c-1.1 1.7-1.1 1.7-.6 0 .3-1 .6-2.4.7-3 0-.9.2-.9.5 0 .3.7 0 2-.6 3zm-1.9 5.7c-1.4 3.6-2.2 3.3-.9-.5.6-1.6 1.2-2.8 1.4-2.6.3.2 0 1.6-.5 3.1zM546 554.1c0 .5.5.7 1 .4.6-.3 1-.8 1-1.1 0-.2-.4-.4-1-.4-.5 0-1 .5-1 1.1zM538 557.8c0 .5.7 1.3 1.6 1.6 2.2.8 2.4.8 2.4-.6 0-.6-.3-.8-.7-.5-.3.4-1.2.2-2-.4-.8-.7-1.3-.8-1.3-.1zM529.9 562.3c-.9.7-1.9 2.2-2.3 3.5-.6 1.7-1.3 2.1-2.7 1.7-1.5-.5-1.9-.2-1.9 1.4 0 2.8-1.6 2.7-2.4-.2-.6-2.1-.7-2.1-2.1-.3-1 1.3-1.1 2.4-.5 3.6 1.2 2.2-1.6 3.6-3.7 1.9-1.6-1.4-1.8-1.2-2.8 2-.5 1.6-.4 2.1.4 1.7 1.6-1 1.3 1-.4 2.8-.8.8-1.5 2.2-1.5 3.2 0 1.4.2 1.5 1.7.3.9-.8 2.5-1.3 3.6-1.1 1 .2 1.6-.1 1.3-.6-.8-1.4 2.1-3.5 3.9-2.8 1.3.5 1.4.2.4-1.7-1.1-2-1.1-2.1.5-.8.9.8 2 1.1 2.3.7.4-.4.1-1.2-.7-1.7-1.1-.8-.9-.9.8-.4 2.1.6 2.3.4 1.8-1.3-.5-1.4 0-2.5 1.5-3.6 1.2-.8 2.6-1.3 3.1-1 1.5.9 3.9-2.9 2.5-3.9-.9-.5-.6-1.2.7-2.2 1.6-1.2 2.2-1.2 3.5-.2 1.4 1.1 1.4 1 .2-.6-1.6-2-4.9-2.2-7.2-.4zm2.1 4.7c0 .5-.4 1-1 1-.5 0-1-.5-1-1 0-.6.5-1 1-1 .6 0 1 .4 1 1zM1211.1 575.2c-.2 15.7-4.3 23.8-17.1 34.1-5.4 4.4-12.5 8.8-19.5 12.2-15.4 7.4-17.1 8.1-68 27.9-9.3 3.7-26.7 10.5-38.5 15.1s-34.1 13.3-49.5 19.3c-15.4 6.1-33.2 13-39.5 15.5-6.3 2.5-18 7.1-26 10.2-39.3 15.3-38.2 14.8-39.2 17.4-2.5 6.7-3.8 54.8-1.5 55.7.7.2 4.6-.9 8.7-2.7 4.1-1.7 12.2-5 18-7.4 5.8-2.4 19.5-8 30.5-12.5s26.1-10.6 33.5-13.6c7.4-3 14.9-6.1 16.5-6.8 1.7-.8 9.3-3.9 17-7.1 7.7-3.1 20.4-8.4 28.3-11.6 7.9-3.2 14.5-5.9 14.8-5.9.4 0 22.6-9.1 27.9-11.5 1.7-.7 6.6-2.7 11-4.5 4.4-1.7 8.9-3.6 10-4 8.3-3.7 28.5-12 29-12 1.3 0 19-9.2 23.4-12.3 10.9-7.4 24.2-23.4 22.7-27.3-.3-.8-.2-1.3.2-1 .5.3.8-2.6.8-6.4-.1-3.7.2-6.6.6-6.4.4.3.7-.8.6-2.3-.3-6.7 2.6-24 4.3-25.3 2-1.6 3.6-23.1 2.1-29.5-1-3.9-1-3.8-1.1 2.7zM425 576.5c0 .2 1 1 2.3 1.6 2 1.1 2.1 1.1.8-.4-1.3-1.6-3.1-2.3-3.1-1.2zM505 583c0 .5.9 1.9 2 3s2 2.4 2 2.9c0 .6.4 1.2.9 1.5.4.3.6-.6.3-2-.2-1.4-1.1-2.8-1.8-3.1-.8-.3-1.4-1.1-1.4-1.9 0-.8-.4-1.4-1-1.4-.5 0-1 .4-1 1z"/><path d="M512.6 584.7c-.6 1.4-.5 1.5.5.6.7-.7 1-1.5.7-1.8-.3-.3-.9.2-1.2 1.2zM438 584.4c0 .2.7.9 1.5 1.6 1.3 1.1 1.4 1 .9-.4-.5-1.4-2.4-2.3-2.4-1.2zM444 587c0 .5.5 1 1.1 1 .5 0 .7-.5.4-1-.3-.6-.8-1-1.1-1-.2 0-.4.4-.4 1zM447.1 588.6c0 1.1.3 1.4.6.6.3-.7.2-1.6-.1-1.9-.3-.4-.6.2-.5 1.3zM450.4 591.5c.8.8 2.2 1.5 3 1.5.9 0 1.6.7 1.6 1.5s.7 1.5 1.5 1.5 1.5.4 1.5.9 2.1 1.8 4.8 3c2.6 1.2 6.1 3 7.7 4.1 6.8 4.3 17.7 10.1 18.2 9.7 1.1-1.2-2.5-4.8-5.4-5.3-1.8-.3-3-1.1-2.7-1.6.4-.6-.2-.8-1.4-.4-1.6.5-2.8-.1-4.8-2.3-1.5-1.7-3.1-2.8-3.6-2.5-.5.3-1.7-.3-2.7-1.5-1.2-1.3-2.5-1.8-3.9-1.4-1.6.4-2.4-.1-3.1-1.8-.5-1.3-1-2.1-1-1.7-.1.4-2.2-.6-4.8-2.2-5.1-3.2-7.4-3.9-4.9-1.5zM507 591.5c.7.8 1.7 1.5 2.2 1.5.6 0 .5-.7-.2-1.5s-1.7-1.5-2.2-1.5c-.6 0-.5.7.2 1.5z"/><path d="M477 605c0 .5.5 1 1 1 .6 0 1-.5 1-1 0-.6-.4-1-1-1-.5 0-1 .4-1 1zM1119.5 700.4c-2.7 1.3-6.7 2.9-8.7 3.7-2.1.7-3.8 1.8-3.8 2.4.1 3.3 2.3 10 3.7 11 2.4 1.8.9 10.1-2.7 14.4-2.6 3-3.2 3.3-6.4 2.7-3.5-.7-3.6-.8-3.6-5.4 0-4.2.5-5.3 4.4-9.4l4.3-4.8-5.4-2c-2.9-1.1-5.6-2-5.8-2-1.2 0-7.5 6.4-7.5 7.6 0 .8 1 1.9 2.3 2.4 1.8.7 1.9.9.4.9-1.4.1-1.7.6-1.2 2.2.5 1.5.4 1.9-.4 1.5-.7-.5-1.1.3-1.2 2.1 0 2.3-.7 1.4-3.5-4.5l-3.4-7.2-3.2 1.3c-1.8.8-5.8 2.4-8.8 3.7-3 1.2-6.4 2.6-7.5 3.1-1.1.4-7.8 3.1-15 6-11.3 4.4-17.1 6.9-32 13.4-1.6.7-10 4.1-18.5 7.5-8.5 3.5-16.2 6.9-17 7.5-.8.7-2.4 1.5-3.5 1.8-1.1.2-.1.5 2.1.6 2.3 0 9.3 1.2 15.5 2.5 9.7 2 18.5 3.6 29.9 5.2 24.3 3.4 57.7 2.7 66.3-1.5 6.8-3.3 14-9.4 19.3-16.4 5.6-7.4 12.6-21.8 14.9-30.5 1.9-7.5 3.2-22.2 1.9-22.2-.5.1-3.1 1.1-5.9 2.4zm-27.7 32.5c1.2 1 2.2 2.3 2.2 3 0 .6.6 1.1 1.4 1.1.8 0 1.6.7 1.8 1.5.2 1 .7 1.2 1.7.5 1.2-.7 1-1.1-1.2-2.1-4.1-1.9-3.2-3.2.9-1.4 2 .8 3.9 1.5 4.1 1.5 1.5 0-2.2 3-4.7 3.9-3.6 1.2-6.2-.7-8.5-6.2-1.7-4.1-.9-4.7 2.3-1.8z"/><path d="M1094.6 739.3c.3 1 .9 1.5 1.2 1.2.3-.3 0-1.1-.7-1.8-1-.9-1.1-.8-.5.6z"/></svg>