<?xml version="1.0" encoding="UTF-8" standalone="no"?>
<!-- Svg Vector Icons : http://www.onlinewebfonts.com/icon -->

<svg
   xmlns:dc="http://purl.org/dc/elements/1.1/"
   xmlns:cc="http://creativecommons.org/ns#"
   xmlns:rdf="http://www.w3.org/1999/02/22-rdf-syntax-ns#"
   xmlns:svg="http://www.w3.org/2000/svg"
   xmlns="http://www.w3.org/2000/svg"
   xmlns:sodipodi="http://sodipodi.sourceforge.net/DTD/sodipodi-0.dtd"
   xmlns:inkscape="http://www.inkscape.org/namespaces/inkscape"
   version="1.1"
   x="0px"
   y="0px"
   viewBox="0 0 500 1000"
   enable-background="new 0 0 1000 1000"
   xml:space="preserve"
   id="svg3797"
   sodipodi:docname="battery.svg"
   inkscape:version="0.92.3 (d244b95, 2018-08-02)"
   width="500"
   height="1000"><defs
   id="defs3801" /><sodipodi:namedview
   pagecolor="#ffffff"
   bordercolor="#666666"
   borderopacity="1"
   objecttolerance="10"
   gridtolerance="10"
   guidetolerance="10"
   inkscape:pageopacity="0"
   inkscape:pageshadow="2"
   inkscape:window-width="1853"
   inkscape:window-height="1145"
   id="namedview3799"
   showgrid="false"
   showguides="true"
   inkscape:zoom="0.4635"
   inkscape:cx="-406.29318"
   inkscape:cy="408.43595"
   inkscape:window-x="67"
   inkscape:window-y="27"
   inkscape:window-maximized="1"
   inkscape:current-layer="g3795" />
<metadata
   id="metadata3777"> Svg Vector Icons : http://www.onlinewebfonts.com/icon <rdf:RDF><cc:Work
     rdf:about=""><dc:format>image/svg+xml</dc:format><dc:type
       rdf:resource="http://purl.org/dc/dcmitype/StillImage" /><dc:title></dc:title><cc:license
       rdf:resource="http://creativecommons.org/licenses/by/4.0/" /></cc:Work><cc:License
     rdf:about="http://creativecommons.org/licenses/by/4.0/"><cc:permits
       rdf:resource="http://creativecommons.org/ns#Reproduction" /><cc:permits
       rdf:resource="http://creativecommons.org/ns#Distribution" /><cc:requires
       rdf:resource="http://creativecommons.org/ns#Notice" /><cc:requires
       rdf:resource="http://creativecommons.org/ns#Attribution" /><cc:permits
       rdf:resource="http://creativecommons.org/ns#DerivativeWorks" /></cc:License></rdf:RDF></metadata>
<g
   id="g3795"
   transform="matrix(0,-0.80653296,1,0,-0.00407,808.4617)"
   style="display:inline"
   inkscape:label="battery"><path
     inkscape:connector-curvature="0"
     id="path3779"
     d="m -136.9163,50.635005 c -42.68166,1.67 -58.75641,8.8 -71.91854,32.11 -4.96498,9.04 -5.55488,19.029995 -5.55488,167.689995 0,148.43 0.5899,158.66 5.55488,167.7 6.42745,11.65 18.42206,21.64 33.03435,27.59 10.51987,4.28 25.42712,4.52 511.86041,4.52 h 500.75064 l 15.79209,-7.85 c 18.40978,-9.04 32.1618,-26.88 32.1618,-42.34 v -9.28 h 24.2596 c 38.88419,-0.24 61.38638,-9.99 73.95861,-31.87 L 990,346.775 v -96.34 c 0,-91.82 -0.29495,-96.81 -6.13249,-107.04 -13.14984,-23.55 -30.10944,-31.4 -70.45608,-32.83 l -28.64698,-0.95 v -8.8 c 0,-19.979995 -25.14445,-45.669995 -48.23654,-49.239995 -11.40472,-1.65 -928.710191,-2.61 -973.44421,-0.94 z m 970.51929,41.62 c 6.72239,5.23 7.31229,7.37 7.31229,29.499995 v 23.79 l 45.60658,0.71 45.60657,0.71 7.01734,6.66 7.01735,6.66 v 90.15 90.15 l -7.01735,6.66 c -7.01734,6.66 -7.59494,6.66 -41.7968,7.14 -18.99967,0.24 -39.4618,0.47 -45.31163,0.47 l -11.10977,0.24 v 23.79 c 0,22.36 -0.5899,24.5 -7.31229,29.73 l -7.01735,5.95 H 335.77726 c -479.121,0 -491.10332,0 -497.82572,-4.52 l -7.01734,-4.52 V 250.435 95.345005 l 7.01734,-4.52 c 6.7224,-4.52 18.70472,-4.52 497.82572,-4.52 h 490.80838 z"
     style="display:inline;stroke-width:0.11085831"
     inkscape:label="outline" /><path
     inkscape:connector-curvature="0"
     id="path3791"
     d="m 868.45,176.03407 -5.71,4.52 v 69.45 69.46 l 5.71,4.52 c 3.09,2.38 8.56,4.52 12.13,4.52 3.57,0 9.04,-2.14 12.13,-4.52 l 5.71,-4.52 v -69.46 -69.46 l -5.71,-4.52 c -3.09,-2.38 -8.56,-4.52 -12.13,-4.52 -3.57,0.01 -9.04,2.15 -12.13,4.53 z"
     style="display:inline;stroke-width:0.1"
     inkscape:label="anode" /><path
     inkscape:connector-curvature="0"
     id="path3781-7"
     d="m 726.82058,250.00407 v 130 h 40 40 v -130 -130 h -40 -40 z"
     style="display:inline;fill:#b3b3b3;stroke-width:0.08406248;image-rendering:auto"
     inkscape:label="tick10" /><path
     inkscape:connector-curvature="0"
     id="path3781-7-6"
     d="m 630.59044,250.00407 v 130 h 40 40 v -130 -130 h -40 -40 z"
     style="fill:#b3b3b3;stroke-width:0.08406248;image-rendering:auto"
     inkscape:label="tick9" /><path
     inkscape:connector-curvature="0"
     id="path3781-7-0"
     d="m 534.36029,250.00407 v 130 h 40 40 v -130 -130 h -40 -40 z"
     style="fill:#008000;stroke-width:0.08406248;image-rendering:auto"
     inkscape:label="tick8" /><path
     inkscape:connector-curvature="0"
     id="path3781-7-62"
     d="m 438.13012,250.00407 v 130 h 40 40 v -130 -130 h -40 -40 z"
     style="fill:#008000;stroke-width:0.08406248;image-rendering:auto"
     inkscape:label="tick7" /><path
     inkscape:connector-curvature="0"
     id="path3781-7-61"
     d="m 341.89997,250.00407 v 130 h 40 40 v -130 -130 h -40 -40 z"
     style="fill:#008000;stroke-width:0.08406248;image-rendering:auto"
     inkscape:label="tick6" /><path
     inkscape:connector-curvature="0"
     id="path3781-7-8"
     d="m 245.66981,250.00407 v 130 h 40 40 v -130 -130 h -40 -40 z"
     style="fill:#008000;stroke-width:0.08406248;image-rendering:auto"
     inkscape:label="tick5" /><path
     inkscape:connector-curvature="0"
     id="path3781-7-7"
     d="m 149.43966,250.00407 v 130 h 40 40 v -130 -130 h -40 -40 z"
     style="fill:#008000;stroke-width:0.08406248;image-rendering:auto"
     inkscape:label="tick4" /><path
     inkscape:connector-curvature="0"
     id="path3781-7-9"
     d="m 53.209498,250.00407 v 130 h 40 40.000002 v -130 -130 h -40.000002 -40 z"
     style="display:inline;fill:#008000;stroke-width:0.08406248;image-rendering:auto"
     inkscape:label="tick3" /><path
     inkscape:connector-curvature="0"
     id="path3781-7-2"
     d="m -43.020654,250.00407 v 130 H -3.0206538 36.979344 v -130 -130 H -3.0206538 -43.020654 Z"
     style="display:inline;fill:#ffff00;stroke-width:0.08406248;image-rendering:auto"
     inkscape:label="tick2" /><path
     inkscape:connector-curvature="0"
     id="path3781-7-02"
     d="m -139.25081,250.00407 v 130 h 40.000004 40 v -130 -130 h -40 -40.000004 z"
     style="display:inline;fill:#ff0000;stroke-width:0.08406248;image-rendering:auto"
     inkscape:label="tick1" /></g>
</svg>